HIERARCHY
ROOT hip
{
  OFFSET 0 0 0
  CHANNELS 6 Xposition Yposition Zposition Zrotation Yrotation Xrotation
  JOINT abdomen
  {
    OFFSET 0 20.6881 -0.73152
    CHANNELS 3 Zrotation Xrotation Yrotation
    JOINT chest
    {
      OFFSET 0 11.7043 -0.48768
      CHANNELS 3 Zrotation Xrotation Yrotation
      JOINT neck
      {
        OFFSET 0 22.1894 -2.19456
        CHANNELS 3 Zrotation Xrotation Yrotation
        JOINT head
        {
          OFFSET -0.24384 7.07133 1.2192
          CHANNELS 3 Zrotation Xrotation Yrotation
          JOINT leftEye
          {
            OFFSET 4.14528 8.04674 8.04672
            CHANNELS 3 Zrotation Xrotation Yrotation
            End Site
            {
              OFFSET 1 0 0
            }
          }
          JOINT rightEye
          {
            OFFSET -3.6576 8.04674 8.04672
            CHANNELS 3 Zrotation Xrotation Yrotation
            End Site
            {
              OFFSET 1 0 0
            }
          }
        }
      }
      JOINT rCollar
      {
        OFFSET -2.68224 19.2634 -4.8768
        CHANNELS 3 Zrotation Xrotation Yrotation
        JOINT rShldr
        {
          OFFSET -8.77824 -1.95073 1.46304
          CHANNELS 3 Zrotation Xrotation Yrotation
          JOINT rForeArm
          {
            OFFSET -28.1742 -1.7115 0.48768
            CHANNELS 3 Zrotation Xrotation Yrotation
            JOINT rHand
            {
              OFFSET -22.5879 0.773209 7.07136
              CHANNELS 3 Zrotation Xrotation Yrotation
              JOINT rThumb1
              {
                OFFSET -1.2192 -0.487915 3.41376
                CHANNELS 3 Zrotation Xrotation Yrotation
                JOINT rThumb2
                {
                  OFFSET -3.37035 -0.52449 3.41376
                  CHANNELS 3 Zrotation Xrotation Yrotation
                  End Site
                  {
                    OFFSET -1.78271 -1.18214 1.43049
                  }
                }
              }
              JOINT rIndex1
              {
                OFFSET -7.75947 0.938293 5.60832
                CHANNELS 3 Zrotation Xrotation Yrotation
                JOINT rIndex2
                {
                  OFFSET -2.54057 -0.884171 1.56538
                  CHANNELS 3 Zrotation Xrotation Yrotation
                  End Site
                  {
                    OFFSET -1.62519 -0.234802 1.16502
                  }
                }
              }
              JOINT rMid1
              {
                OFFSET -8.24714 1.18213 3.41376
                CHANNELS 3 Zrotation Xrotation Yrotation
                JOINT rMid2
                {
                  OFFSET -3.10165 -0.590103 1.0647
                  CHANNELS 3 Zrotation Xrotation Yrotation
                  End Site
                  {
                    OFFSET -2.48547 -0.328903 0.83742
                  }
                }
              }
              JOINT rRing1
              {
                OFFSET -8.82822 0.546677 1.51678
                CHANNELS 3 Zrotation Xrotation Yrotation
                JOINT rRing2
                {
                  OFFSET -2.60934 -0.819778 -0.0198488
                  CHANNELS 3 Zrotation Xrotation Yrotation
                  End Site
                  {
                    OFFSET -2.33842 -0.294052 0.168128
                  }
                }
              }
              JOINT rPinky1
              {
                OFFSET -8.27202 -0.0477905 -0.4584
                CHANNELS 3 Zrotation Xrotation Yrotation
                JOINT rPinky2
                {
                  OFFSET -1.82734 -0.647385 -0.700984
                  CHANNELS 3 Zrotation Xrotation Yrotation
                  End Site
                  {
                    OFFSET -1.69225 -0.51767 -0.607171
                  }
                }
              }
            }
          }
        }
      }
      JOINT lCollar
      {
        OFFSET 2.68224 19.2634 -4.8768
        CHANNELS 3 Zrotation Xrotation Yrotation
        JOINT lShldr
        {
          OFFSET 8.77824 -1.95073 1.46304
          CHANNELS 3 Zrotation Xrotation Yrotation
          JOINT lForeArm
          {
            OFFSET 28.1742 -1.7115 0.48768
            CHANNELS 3 Zrotation Xrotation Yrotation
            JOINT lHand
            {
              OFFSET 22.5879 0.773209 7.07136
              CHANNELS 3 Zrotation Xrotation Yrotation
              JOINT lThumb1
              {
                OFFSET 1.2192 -0.487915 3.41376
                CHANNELS 3 Zrotation Xrotation Yrotation
                JOINT lThumb2
                {
                  OFFSET 3.37035 -0.52449 3.41376
                  CHANNELS 3 Zrotation Xrotation Yrotation
                  End Site
                  {
                    OFFSET 1.78271 -1.18214 1.43049
                  }
                }
              }
              JOINT lIndex1
              {
                OFFSET 7.75947 0.938293 5.60832
                CHANNELS 3 Zrotation Xrotation Yrotation
                JOINT lIndex2
                {
                  OFFSET 2.54057 -0.884171 1.56538
                  CHANNELS 3 Zrotation Xrotation Yrotation
                  End Site
                  {
                    OFFSET 1.62519 -0.234802 1.16502
                  }
                }
              }
              JOINT lMid1
              {
                OFFSET 8.24714 1.18213 3.41376
                CHANNELS 3 Zrotation Xrotation Yrotation
                JOINT lMid2
                {
                  OFFSET 3.10165 -0.590103 1.0647
                  CHANNELS 3 Zrotation Xrotation Yrotation
                  End Site
                  {
                    OFFSET 2.48547 -0.328903 0.83742
                  }
                }
              }
              JOINT lRing1
              {
                OFFSET 8.82822 0.546677 1.51678
                CHANNELS 3 Zrotation Xrotation Yrotation
                JOINT lRing2
                {
                  OFFSET 2.60934 -0.819778 -0.0198488
                  CHANNELS 3 Zrotation Xrotation Yrotation
                  End Site
                  {
                    OFFSET 2.33842 -0.294052 0.168128
                  }
                }
              }
              JOINT lPinky1
              {
                OFFSET 8.27202 -0.0477905 -0.4584
                CHANNELS 3 Zrotation Xrotation Yrotation
                JOINT lPinky2
                {
                  OFFSET 1.82734 -0.647385 -0.700984
                  CHANNELS 3 Zrotation Xrotation Yrotation
                  End Site
                  {
                    OFFSET 1.69225 -0.51767 -0.607171
                  }
                }
              }
            }
          }
        }
      }
    }
  }
  JOINT rButtock
  {
    OFFSET -8.77824 4.35084 1.2192
    CHANNELS 3 Zrotation Xrotation Yrotation
    JOINT rThigh
    {
      OFFSET 0 -1.70687 -2.19456
      CHANNELS 3 Zrotation Xrotation Yrotation
      JOINT rShin
      {
        OFFSET 0 -36.8199 0.73152
        CHANNELS 3 Zrotation Xrotation Yrotation
        JOINT rFoot
        {
          OFFSET 0.73152 -45.1104 -5.12064
          CHANNELS 3 Zrotation Xrotation Yrotation
          End Site
          {
            OFFSET -1.1221 -3.69964 12.103
          }
        }
      }
    }
  }
  JOINT lButtock
  {
    OFFSET 8.77824 4.35084 1.2192
    CHANNELS 3 Zrotation Xrotation Yrotation
    JOINT lThigh
    {
      OFFSET 0 -1.70687 -2.19456
      CHANNELS 3 Zrotation Xrotation Yrotation
      JOINT lShin
      {
        OFFSET 0 -36.8199 0.73152
        CHANNELS 3 Zrotation Xrotation Yrotation
        JOINT lFoot
        {
          OFFSET -0.73152 -45.1104 -5.12064
          CHANNELS 3 Zrotation Xrotation Yrotation
          End Site
          {
            OFFSET 1.1221 -3.69964 12.103
          }
        }
      }
    }
  }
}
MOTION
Frames:	4
Frame Time:	0.00833333
0.0 0.0 0.0 0.0 0.0 0.0 0.0 0.0 0.0 0.0 0.0 0.0 0.0 0.0 0.0 0.0 0.0 0.0 0.0 0.0 0.0 0.0 0.0 0.0 0.0 0.0 0.0 0.0 0.0 0.0 0.0 0.0 0.0 0.0 0.0 0.0 0.0 0.0 0.0 0.0 0.0 0.0 0.0 0.0 0.0 0.0 0.0 0.0 0.0 0.0 0.0 0.0 0.0 0.0 0.0 0.0 0.0 0.0 0.0 0.0 0.0 0.0 0.0 0.0 0.0 0.0 0.0 0.0 0.0 0.0 0.0 0.0 0.0 0.0 0.0 0.0 0.0 0.0 0.0 0.0 0.0 0.0 0.0 0.0 0.0 0.0 0.0 0.0 0.0 0.0 0.0 0.0 0.0 0.0 0.0 0.0 0.0 0.0 0.0 0.0 0.0 0.0 0.0 0.0 0.0 0.0 0.0 0.0 0.0 0.0 0.0 0.0 0.0 0.0 0.0 0.0 0.0 0.0 0.0 0.0 0.0 0.0 0.0 0.0 0.0 0.0 0.0 0.0 0.0 0.0 0.0 0.0
-62.7154 84.1846 10.0989 -0.0 -0.0 -0.0 -0.0 -4.771896 -180.0 0.0 -4.771896 180.0 5.378815 19.190315 171.562156 2.722037 19.722949 -172.945368 -0.0 0.0 -0.0 -0.0 0.0 -0.0 -158.468064 -30.055529 166.919939 -148.778935 24.474677 154.499178 0.935146 -0.150074 0.264769 -0.977035 3.127919 -0.080399 -171.706035 -9.388422 89.948992 -71.634586 2.532717 21.796467 -162.919155 -37.929343 122.629395 43.920696 -35.53451 -5.445283 -160.573436 -6.359341 143.198121 11.967658 -16.656742 -1.138495 -132.481743 54.102976 155.533585 -136.799287 -47.32314 -158.492435 3.67189 10.44892 3.33739 -161.730835 52.063844 -149.091366 155.716846 -4.925325 -162.135615 -97.994592 -75.661298 -75.761299 -177.804705 -75.655259 -174.05596 4.056505 12.902155 -0.015314 3.030664 2.96398 -0.542007 -11.238565 -14.508712 6.456503 -159.641557 -69.973343 -102.396332 169.047238 -35.450356 -105.230125 151.476684 17.84174 -137.538824 165.621516 -22.490166 -145.490821 0.007655 3.557308 -1.118186 165.984648 -0.785362 -172.55271 145.543006 13.244722 142.14923 42.61026 -49.591958 45.633248 -0.0 0.0 -0.0 -0.0 -2.27635 -180.0 -7.141193 -6.527402 -102.138307 -4.936032 -1.296361 -80.401011 -0.0 0.0 -0.0 -0.0 -2.27635 -180.0 7.141193 -6.527402 102.138307 4.936032 -1.296361 80.401011
-62.70519999999999 84.2182 10.1112 -0.0 -0.0 -0.0 0.0 0.0 0.0 0.0 -0.0 0.0 9.579663 3.263211 60.169506 -7.606876 6.687135 -59.997951 0.0 -0.0 -0.0 0.0 -0.0 -0.0 -80.1661 68.371792 83.260848 -74.052472 86.559486 93.568899 -62.214242 -75.466627 -88.529526 98.437317 -70.454668 82.540673 -7.758532 7.439094 1.682075 -75.081206 22.186293 70.366883 -0.327682 0.529888 0.186114 -178.465936 -20.774056 109.129313 0.541241 -1.589941 -0.294737 -85.284158 64.262116 74.071952 -145.119721 0.310087 -179.225753 -139.159393 -38.291747 -172.052699 -7.406432 -16.183973 -6.978113 -23.962593 -40.319438 -22.437681 155.61387 -4.23638 -161.991154 159.905035 -17.682477 -161.946285 4.001548 -0.28941 1.913315 -4.625204 -14.238648 -1.069374 -0.468632 -0.46324 0.07015 29.838678 23.646782 -26.239486 151.353117 -17.158427 -121.133109 9.828483 44.734612 -8.790523 -7.904304 -24.807577 3.013399 165.942585 -3.696805 -141.816693 0.014868 -1.323148 0.415899 165.673584 -1.620334 -171.729327 139.224096 -4.39683 136.390672 -18.029997 41.245959 -7.008259 -0.0 0.0 -0.0 -0.0 -0.0 -0.0 6.649139 3.263768 68.510317 -152.790666 -75.672878 105.247904 -0.0 0.0 -0.0 -0.0 -0.0 -0.0 -6.649139 3.263768 -68.510317 152.790666 -75.672878 -105.247904
-62.6877 84.2485 10.1183 -0.0 0.0 -0.0 0.0 0.0 0.0 -0.0 -0.0 0.0 -7.417427 6.176288 -56.922404 9.210072 2.862964 57.092487 0.0 -0.0 -0.0 0.0 -0.0 -0.0 -9.651699 34.836178 11.199233 -164.452868 -27.575476 -176.062683 173.422332 82.633487 -170.294453 -5.983942 18.764501 0.340886 -178.927535 -16.453687 89.421826 122.000677 -64.240532 91.618074 37.215945 -57.917763 -0.643014 152.285035 -49.272427 84.241808 -175.766492 -50.334504 144.098384 -6.615587 25.967916 8.876186 -145.119466 0.267753 -179.212454 -145.247246 1.749572 -179.389798 5.663198 16.872151 5.087837 -6.14418 -13.699579 -5.856152 9.651699 34.836178 -11.199233 13.947974 -74.820692 25.030574 -179.05173 -27.05669 -142.540525 -172.67852 -10.612396 -144.552624 -3.542085 -3.523858 0.437451 -12.955645 -22.301228 12.728989 160.10123 -33.161924 -122.700876 141.036776 1.205806 -116.659799 36.036059 51.723116 -29.832321 164.983688 -6.308419 -146.096504 -0.004875 1.770451 -0.556181 79.12743 -86.590481 90.24679 148.242325 22.397232 144.472132 -58.752789 81.638485 19.433195 -180.0 75.749642 -0.0 -180.0 73.473292 -180.0 -7.397059 -7.393404 -94.29247 -150.876237 -12.125326 102.53771 -180.0 75.749642 -0.0 -180.0 73.473292 -180.0 4.605221 -3.322687 138.122583 6.082097 4.3852 41.034174
